<svg xmlns="http://www.w3.org/2000/svg" viewBox="0 0 200 200">
  <!-- Background Circle -->
  <circle cx="100" cy="100" r="90" fill="#1B75BB" opacity="0.2"/>
  
  <!-- Middle Circle -->
  <circle cx="100" cy="100" r="70" fill="#1B75BB" opacity="0.4"/>
  
  <!-- Inner Circle -->
  <circle cx="100" cy="100" r="50" fill="#FFFFFF"/>
  
  <!-- Energy Bolt -->
  <path d="M100,50 L85,100 L115,100 L100,150 L110,105 L80,105 L100,50" fill="#1B75BB" stroke="#1B75BB" stroke-width="2"/>
  
  <!-- Small Energy Icons -->
  <g opacity="0.7">
    <!-- Light Bulb -->
    <circle cx="45" cy="80" r="12" fill="#FFFFFF"/>
    <path d="M45,72 C38,72 35,78 35,84 C35,88 38,91 40,93 L40,97 L50,97 L50,93 C52,91 55,88 55,84 C55,78 52,72 45,72 Z" fill="#FFCC00" stroke="#F57C00" stroke-width="1"/>
    <rect x="42" y="97" width="6" height="3" fill="#F57C00"/>
    
    <!-- Home -->
    <circle cx="160" cy="70" r="12" fill="#FFFFFF"/>
    <path d="M160,60 L150,68 L150,80 L155,80 L155,73 L165,73 L165,80 L170,80 L170,68 Z" fill="#4CAF50" stroke="#2E7D32" stroke-width="1"/>
    
    <!-- Thermostat -->
    <circle cx="150" cy="130" r="12" fill="#FFFFFF"/>
    <rect x="147" y="120" width="6" height="16" rx="3" fill="#E53935" stroke="#B71C1C" stroke-width="1"/>
    <circle cx="150" cy="136" r="4" fill="#E53935" stroke="#B71C1C" stroke-width="1"/>
    
    <!-- Solar Panel -->
    <circle cx="50" cy="140" r="12" fill="#FFFFFF"/>
    <rect x="40" y="132" width="20" height="15" fill="#3F51B5" stroke="#1A237E" stroke-width="1"/>
    <line x1="40" y1="137" x2="60" y2="137" stroke="#1A237E" stroke-width="1"/>
    <line x1="45" y1="132" x2="45" y2="147" stroke="#1A237E" stroke-width="1"/>
    <line x1="50" y1="132" x2="50" y2="147" stroke="#1A237E" stroke-width="1"/>
    <line x1="55" y1="132" x2="55" y2="147" stroke="#1A237E" stroke-width="1"/>
  </g>
</svg> 